<?xml version="1.0" encoding="UTF-8"?>
<svg xmlns="http://www.w3.org/2000/svg" viewBox="0 0 512 512">
  <defs>
    <linearGradient id="coinGrad" x1="0%" y1="0%" x2="100%" y2="100%">
      <stop offset="0%" stop-color="#FFD700"/>
      <stop offset="50%" stop-color="#FFC107"/>
      <stop offset="100%" stop-color="#FF9800"/>
    </linearGradient>
  </defs>
  
  <!-- Hintergrund -->
  <rect width="512" height="512" rx="100" fill="#512BD4"/>
  
  <!-- Grosse Muenze -->
  <circle cx="256" cy="256" r="200" fill="url(#coinGrad)"/>
  <circle cx="256" cy="256" r="180" fill="none" stroke="#B8860B" stroke-width="10"/>
  <circle cx="256" cy="256" r="165" fill="none" stroke="#DAA520" stroke-width="4"/>
  
  <!-- Dollar-Zeichen als Pfad statt Text (Android-kompatibel) -->
  <path d="M240 100 L240 130 Q180 140 160 180 Q140 220 160 260 Q175 290 220 305 L240 310 L240 370 Q200 365 175 345 L155 380 Q190 405 240 412 L240 440 L272 440 L272 412 Q330 400 355 360 Q380 315 355 265 Q335 230 290 210 L272 205 L272 150 Q305 155 325 170 L345 135 Q315 115 272 108 L272 100 Z M240 210 Q200 200 200 175 Q200 155 240 150 Z M272 305 Q320 320 320 350 Q320 375 272 380 Z" fill="#512BD4"/>
  
  <!-- Glanzeffekt -->
  <ellipse cx="180" cy="140" rx="70" ry="35" fill="white" opacity="0.35"/>
</svg>
